#!OML:ASF G:\JayActor3\Patient Classification 1\Patient 1\Session 6\male.ASF
:FULLY-SPECIFIED
:DEGREES
1829
root 9.2028 15.4116 -2.92611 29.5592 -63.0894 -10.7592
lowerback 31.0634 -2.29431 -0.810223
upperback 15.7703 -4.32916 -1.64131
thorax 0.871226 -2.59247 -0.108288
lowerneck 3.60954 -8.2675 -1.90083
upperneck -29.0306 -9.07957 17.1416
head -8.61705 -6.59812 7.07359
rclavicle -1.43125e-014 2.06736e-014
rhumerus -16.7054 48.2817 -96.1615
rradius 125.634
rwrist 16.5903
rhand -50.7839 -12.9526
rfingers 7.12502
rthumb -23.3413 -41.5574
lclavicle -1.43125e-014 2.06736e-014
lhumerus -19.6931 -42.7543 88.4565
lradius 130.973
lwrist 19.063
lhand -49.8976 3.42494
lfingers 7.12502
lthumb -22.4908 32.1352
rfemur -59.4512 0.45199 26.1613
rtibia 59.6516
rfoot -20.6152 -12.7877
rtoes 6.81671
lfemur -57.2985 12.0519 -20.9968
ltibia 56.2047
lfoot -18.9621 10.3012
ltoes -1.08654
1830
root 9.2039 15.4114 -2.92506 29.5666 -63.0884 -10.7714
lowerback 31.0628 -2.29463 -0.806673
upperback 15.7721 -4.32899 -1.64463
thorax 0.873019 -2.5921 -0.114118
lowerneck 3.62375 -8.26371 -1.89697
upperneck -29.0453 -9.07133 17.1468
head -8.62575 -6.59618 7.077
rclavicle 1.90833e-014 4.21423e-014
rhumerus -16.724 48.2665 -96.1754
rradius 125.639
rwrist 16.592
rhand -50.7807 -12.9501
rfingers 7.12502
rthumb -23.3382 -41.5553
lclavicle 1.90833e-014 4.21423e-014
lhumerus -19.6882 -42.7622 88.4565
lradius 130.969
lwrist 19.0674
lhand -49.8932 3.48002
lfingers 7.12502
lthumb -22.4866 32.1908
rfemur -59.4474 0.445417 26.164
rtibia 59.6494
rfoot -20.6105 -12.78
rtoes 6.80639
lfemur -57.298 12.044 -20.9923
ltibia 56.2096
lfoot -18.9661 10.3087
ltoes -1.08219
1831
root 9.20492 15.4112 -2.924 29.574 -63.0879 -10.7809
lowerback 31.0565 -2.29512 -0.804221
upperback 15.7744 -4.32918 -1.64828
thorax 0.877916 -2.59196 -0.119904
lowerneck 3.65016 -8.257 -1.89672
upperneck -29.0713 -9.05756 17.1554
head -8.64084 -6.59236 7.084
rclavicle -2.70347e-014 -3.97569e-015
rhumerus -16.7414 48.2527 -96.1894
rradius 125.643
rwrist 16.5905
rhand -50.7828 -12.947
rfingers 7.12502
rthumb -23.3403 -41.5519
lclavicle -2.70347e-014 -3.97569e-015
lhumerus -19.6866 -42.7693 88.4589
lradius 130.967
lwrist 19.0723
lhand -49.891 3.5396
lfingers 7.12502
lthumb -22.4845 32.2506
rfemur -59.4479 0.440623 26.1644
rtibia 59.6494
rfoot -20.6047 -12.7749
rtoes 6.80254
lfemur -57.2998 12.0343 -20.9895
ltibia 56.2145
lfoot -18.9701 10.3201
ltoes -1.08359
1832
root 9.2059 15.4107 -2.92298 29.5796 -63.0888 -10.7863
lowerback 31.0471 -2.29552 -0.803913
upperback 15.7769 -4.32975 -1.65226
thorax 0.884516 -2.5921 -0.124913
lowerneck 3.68392 -8.24818 -1.9008
upperneck -29.106 -9.03977 17.168
head -8.66029 -6.5872 7.09434
rclavicle -4.77083e-015 -6.59965e-014
rhumerus -16.7549 48.2394 -96.2015
rradius 125.646
rwrist 16.5868
rhand -50.7861 -12.9424
rfingers 7.12502
rthumb -23.3435 -41.547
lclavicle -4.77083e-015 -6.59965e-014
lhumerus -19.6878 -42.7751 88.4634
lradius 130.967
lwrist 19.0791
lhand -49.8857 3.55781
lfingers 7.12502
lthumb -22.4794 32.2695
rfemur -59.4527 0.437615 26.1621
rtibia 59.6521
rfoot -20.5986 -12.7732
rtoes 6.80539
lfemur -57.304 12.023 -20.9888
ltibia 56.2197
lfoot -18.9728 10.3346
ltoes -1.09043
1833
root 9.20686 15.4103 -2.92199 29.5801 -63.0885 -10.7874
lowerback 31.0376 -2.29638 -0.803569
upperback 15.781 -4.33095 -1.65553
thorax 0.893113 -2.59267 -0.129071
lowerneck 3.71582 -8.23944 -1.9059
upperneck -29.1444 -9.0224 17.1802
head -8.68055 -6.58231 7.10497
rclavicle -1.90833e-014 9.54166e-015
rhumerus -16.7608 48.2272 -96.2077
rradius 125.648
rwrist 16.5828
rhand -50.7894 -12.9331
rfingers 7.12502
rthumb -23.3466 -41.5373
lclavicle -1.90833e-014 9.54166e-015
lhumerus -19.6905 -42.7816 88.4692
lradius 130.968
lwrist 19.0848
lhand -49.887 3.56355
lfingers 7.12502
lthumb -22.4806 32.2751
rfemur -59.4579 0.433948 26.1584
rtibia 59.6566
rfoot -20.5921 -12.775
rtoes 6.80255
lfemur -57.3072 12.0106 -20.9896
ltibia 56.2249
lfoot -18.975 10.3489
ltoes -1.09373
1834
root 9.20764 15.4098 -2.92116 29.5736 -63.088 -10.7847
lowerback 31.0318 -2.29687 -0.807819
upperback 15.7864 -4.33303 -1.65748
thorax 0.902049 -2.59411 -0.128814
lowerneck 3.74186 -8.23164 -1.91332
upperneck -29.1812 -9.0071 17.1928
head -8.69877 -6.57811 7.11561
rclavicle 1.11319e-014 -8.74653e-015
rhumerus -16.7632 48.2201 -96.2128
rradius 125.649
rwrist 16.5846
rhand -50.7941 -12.9242
rfingers 7.12502
rthumb -23.3511 -41.5278
lclavicle 1.11319e-014 -8.74653e-015
lhumerus -19.696 -42.7847 88.4749
lradius 130.972
lwrist 19.0909
lhand -49.8875 3.55858
lfingers 7.12502
lthumb -22.4811 32.27
rfemur -59.4592 0.430416 26.1536
rtibia 59.6622
rfoot -20.589 -12.7781
rtoes 6.80529
lfemur -57.3059 11.9993 -20.9912
ltibia 56.2293
lfoot -18.9754 10.3632
ltoes -1.10321
1835
root 9.20839 15.4093 -2.92042 29.5628 -63.0871 -10.7801
lowerback 31.0288 -2.29713 -0.813263
upperback 15.7928 -4.33524 -1.65837
thorax 0.911093 -2.5958 -0.126603
lowerneck 3.74881 -8.22919 -1.91791
upperneck -29.2047 -9.00149 17.2021
head -8.70804 -6.57759 7.12229
rclavicle -3.18055e-015 -4.13472e-014
rhumerus -16.7612 48.2157 -96.2141
rradius 125.651
rwrist 16.5902
rhand -50.7996 -12.9117
rfingers 7.12502
rthumb -23.3563 -41.5146
lclavicle -3.18055e-015 -4.13472e-014
lhumerus -19.7009 -42.7879 88.4795
lradius 130.978
lwrist 19.0959
lhand -49.887 3.54922
lfingers 7.12502
lthumb -22.4806 32.2607
rfemur -59.4579 0.427631 26.1478
rtibia 59.6679
rfoot -20.5859 -12.7838
rtoes 6.8006
lfemur -57.3018 11.9901 -20.9936
ltibia 56.2332
lfoot -18.975 10.373
ltoes -1.10861
1836
root 9.20913 15.4091 -2.91972 29.5449 -63.0868 -10.7718
lowerback 31.0314 -2.29739 -0.822057
upperback 15.7991 -4.33847 -1.65904
thorax 0.917928 -2.59825 -0.12167
lowerneck 3.75952 -8.22578 -1.92082
upperneck -29.2316 -8.99446 17.2095
head -8.71966 -6.57659 7.12865
rclavicle 3.18055e-014 3.18055e-015
rhumerus -16.7603 48.2173 -96.2179
rradius 125.654
rwrist 16.6018
rhand -50.8044 -12.8971
rfingers 7.12502
rthumb -23.361 -41.4995
lclavicle 3.18055e-014 3.18055e-015
lhumerus -19.7071 -42.7893 88.4843
lradius 130.985
lwrist 19.0962
lhand -49.8877 3.56222
lfingers 7.12502
lthumb -22.4813 32.2736
rfemur -59.4508 0.424676 26.1399
rtibia 59.6721
rfoot -20.5843 -12.7887
rtoes 6.79039
lfemur -57.2919 11.983 -20.9976
ltibia 56.2356
lfoot -18.9746 10.379
ltoes -1.11527
1837
root 9.20986 15.409 -2.91912 29.5288 -63.0876 -10.7669
lowerback 31.0365 -2.29698 -0.831437
upperback 15.8044 -4.34103 -1.65945
thorax 0.922615 -2.6004 -0.116129
lowerneck 3.75414 -8.22781 -1.91888
upperneck -29.2422 -8.99709 17.2126
head -8.72201 -6.57916 7.13024
rclavicle 4.77083e-015 4.77083e-015
rhumerus -16.7629 48.2215 -96.2253
rradius 125.657
rwrist 16.6147
rhand -50.8073 -12.8774
rfingers 7.12502
rthumb -23.3637 -41.4794
lclavicle 4.77083e-015 4.77083e-015
lhumerus -19.7127 -42.7904 88.4887
lradius 130.99
lwrist 19.0905
lhand -49.8887 3.5983
lfingers 7.12502
lthumb -22.4823 32.3096
rfemur -59.4409 0.424849 26.1323
rtibia 59.6747
rfoot -20.5827 -12.7924
rtoes 6.7795
lfemur -57.2809 11.9838 -21.0026
ltibia 56.2374
lfoot -18.9749 10.376
ltoes -1.1123
1838
root 9.21064 15.409 -2.91854 29.5197 -63.0884 -10.7689
lowerback 31.0431 -2.29629 -0.838442
upperback 15.8076 -4.34249 -1.65925
thorax 0.923933 -2.6018 -0.111374
lowerneck 3.7493 -8.23114 -1.91278
upperneck -29.2494 -9.00167 17.2131
head -8.72353 -6.58259 7.13002
rclavicle 2.70347e-014 -1.35174e-014
rhumerus -16.7715 48.2258 -96.2368
rradius 125.66
rwrist 16.6232
rhand -50.8082 -12.8566
rfingers 7.12502
rthumb -23.3647 -41.4585
lclavicle 2.70347e-014 -1.35174e-014
lhumerus -19.7183 -42.7924 88.4929
lradius 130.995
lwrist 19.0819
lhand -49.8913 3.66106
lfingers 7.12502
lthumb -22.4848 32.3721
rfemur -59.4307 0.42752 26.127
rtibia 59.6747
rfoot -20.5784 -12.796
rtoes 6.7667
lfemur -57.2717 11.99 -21.0065
ltibia 56.2385
lfoot -18.9723 10.3683
ltoes -1.11327
1839
root 9.21142 15.4091 -2.91798 29.5151 -63.09 -10.7744
lowerback 31.0483 -2.29456 -0.844609
upperback 15.809 -4.34225 -1.65846
thorax 0.923874 -2.60228 -0.106899
lowerneck 3.74571 -8.23532 -1.90621
upperneck -29.253 -9.0075 17.2128
head -8.72398 -6.58635 7.12925
rclavicle -4.92986e-014 -1.82882e-014
rhumerus -16.7854 48.2273 -96.2505
rradius 125.662
rwrist 16.6279
rhand -50.807 -12.8352
rfingers 7.12502
rthumb -23.3635 -41.4372
lclavicle -4.92986e-014 -1.82882e-014
lhumerus -19.7231 -42.7954 88.4975
lradius 130.998
lwrist 19.0701
lhand -49.8965 3.7606
lfingers 7.12502
lthumb -22.4897 32.471
rfemur -59.4213 0.432812 26.122
rtibia 59.6729
rfoot -20.5723 -12.7982
rtoes 6.7589
lfemur -57.2652 12.0031 -21.0123
ltibia 56.2397
lfoot -18.9694 10.3545
ltoes -1.11099
